<svg width="58" height="61" viewBox="0 0 58 61" fill="none" xmlns="http://www.w3.org/2000/svg">
<g clip-path="url(#clip0_194_314)" filter="url(#filter0_d_194_314)">
<path d="M45.2684 56.2154H12.9903C7.13185 56.2154 2.37695 51.4406 2.37695 45.5577V19.9237C2.37695 14.0408 7.13185 9.26599 12.9903 9.26599H45.2684C51.1268 9.26599 55.8817 14.0408 55.8817 19.9237V45.5577C55.8817 51.4406 51.1268 56.2154 45.2684 56.2154Z" fill="#F9B842"/>
<path d="M45.2684 56.2154H12.9903C7.13185 56.2154 2.37695 51.4406 2.37695 45.5577V19.9237C2.37695 14.0408 7.13185 9.26599 12.9903 9.26599H45.2684C51.1268 9.26599 55.8817 14.0408 55.8817 19.9237V45.5577C55.8817 51.4406 51.1268 56.2154 45.2684 56.2154Z" fill="#FFD27B"/>
<path d="M46.6484 4.94751C51.7441 4.94751 55.8823 9.49416 55.8823 15.1164V46.0466C55.8823 51.6525 50.7542 56.2154 45.6423 56.2154H34.25V4.94751H46.6484Z" fill="url(#paint0_linear_194_314)"/>
<path d="M11.6113 4.94751C6.51564 4.94751 2.37742 9.49416 2.37742 15.1164V46.0466C2.37742 51.6525 7.50557 56.2154 12.6175 56.2154H24.0098V4.94751H11.6113Z" fill="url(#paint1_linear_194_314)"/>
<path d="M45.2684 46.8614H12.9903C7.13185 46.8614 2.37695 42.0866 2.37695 36.2036V10.586C2.37695 4.70302 7.13185 -0.0717773 12.9903 -0.0717773H45.2684C51.1268 -0.0717773 55.8817 4.70302 55.8817 10.586V36.2199C55.8817 42.0866 51.1268 46.8614 45.2684 46.8614Z" fill="#FFDE32"/>
<path d="M27.9992 32.2432C27.9218 32.1676 27.5905 31.8823 27.3181 31.6165C25.6045 30.0581 22.7997 25.993 21.9435 23.8653C21.806 23.5421 21.5148 22.7252 21.4961 22.2887C21.4961 21.8705 21.5923 21.4718 21.7873 21.0913C22.0597 20.617 22.4885 20.2366 22.9947 20.0281C23.3459 19.8939 24.3971 19.6854 24.4158 19.6854C25.5657 19.477 27.4343 19.3623 29.4992 19.3623C31.4665 19.3623 33.2589 19.477 34.4263 19.6476C34.445 19.6672 35.7512 19.8757 36.1986 20.1037C37.016 20.5219 37.5236 21.3389 37.5236 22.2131V22.2887C37.5035 22.8581 36.996 24.0555 36.9773 24.0555C36.1198 26.0685 33.4526 30.0399 31.6802 31.636C31.6802 31.636 31.2248 32.0855 30.9403 32.281C30.5316 32.5859 30.0254 32.737 29.5192 32.737C28.9542 32.737 28.428 32.5663 27.9992 32.2432Z" fill="white"/>
</g>
<defs>
<filter id="filter0_d_194_314" x="0.666016" y="0" width="57" height="61" filterUnits="userSpaceOnUse" color-interpolation-filters="sRGB">
<feFlood flood-opacity="0" result="BackgroundImageFix"/>
<feColorMatrix in="SourceAlpha" type="matrix" values="0 0 0 0 0 0 0 0 0 0 0 0 0 0 0 0 0 0 127 0" result="hardAlpha"/>
<feOffset dy="3"/>
<feGaussianBlur stdDeviation="1"/>
<feColorMatrix type="matrix" values="0 0 0 0 0.870588 0 0 0 0 0.6 0 0 0 0 0.34902 0 0 0 1 0"/>
<feBlend mode="normal" in2="BackgroundImageFix" result="effect1_dropShadow_194_314"/>
<feBlend mode="normal" in="SourceGraphic" in2="effect1_dropShadow_194_314" result="shape"/>
</filter>
<linearGradient id="paint0_linear_194_314" x1="62.949" y1="30.5825" x2="34.2534" y2="30.5825" gradientUnits="userSpaceOnUse">
<stop stop-color="#FFBE5C"/>
<stop offset="0.84375" stop-color="#FFA90B" stop-opacity="0"/>
</linearGradient>
<linearGradient id="paint1_linear_194_314" x1="-4.6892" y1="30.5825" x2="24.0064" y2="30.5825" gradientUnits="userSpaceOnUse">
<stop stop-color="#FFBE5C"/>
<stop offset="0.84375" stop-color="#FFA90B" stop-opacity="0"/>
</linearGradient>
<clipPath id="clip0_194_314">
<rect width="53" height="56" fill="white" transform="translate(2.66602)"/>
</clipPath>
</defs>
</svg>
