<svg width="38" height="40" viewBox="0 0 38 40" fill="none" xmlns="http://www.w3.org/2000/svg">
<g clip-path="url(#clip0_194_389)">
<path d="M18.5841 5.88574C21.563 5.88574 24.6938 16.1556 24.6938 16.1556C24.6938 16.1556 32.3183 13.8381 35.6452 15.1048C36.6192 15.4762 36.5465 17.7143 36.1037 19.0667C35.1677 21.9048 29.2919 27.6413 29.2919 27.6413C29.2919 27.6413 31.9515 37.9778 29.5418 39.7365C27.132 41.4953 18.5841 35.0349 18.5841 35.0349C18.5841 35.0349 10.0393 41.4953 7.62638 39.7365C5.21663 37.9778 7.99638 27.2064 7.99638 27.2064C7.99638 27.2064 1.7633 22.7365 0.855693 18.8159C0.646975 17.9207 0.397146 15.3683 1.37116 14.9969C4.698 13.7334 12.4712 16.1556 12.4712 16.1556C12.4712 16.1556 15.6051 5.88574 18.5841 5.88574Z" fill="#FF7F0E"/>
<path d="M18.5842 2.40637C21.5632 2.40637 24.694 12.6762 24.694 12.6762C24.694 12.6762 35.3923 12.4921 36.3126 15.3365C37.2329 18.181 28.4699 24.3429 28.4699 24.3429C28.4699 24.3429 31.9485 34.4984 29.5388 36.2572C27.129 38.0159 18.5811 31.5556 18.5811 31.5556C18.5811 31.5556 10.0363 38.0159 7.62337 36.2572C5.21363 34.4984 8.69226 24.3429 8.69226 24.3429C8.69226 24.3429 -0.0644045 18.181 0.855852 15.3365C1.77611 12.4921 12.4745 12.6762 12.4745 12.6762C12.4745 12.6762 15.6053 2.40637 18.5842 2.40637Z" fill="url(#paint0_linear_194_389)"/>
<path d="M29.5414 36.2571C29.3358 36.4031 29.0955 36.5301 28.833 36.5714C28.5768 36.6253 28.3112 36.6253 28.0519 36.6158C27.5301 36.5809 27.0178 36.4634 26.5181 36.3142C25.5251 36.0031 24.5796 35.565 23.6561 35.0952C22.7296 34.6285 21.8441 34.092 20.9681 33.5428C20.0953 32.9841 19.2478 32.4031 18.4097 31.7841H18.7576C17.9196 32.4 17.0689 32.9841 16.1992 33.5428C15.3232 34.092 14.4378 34.6285 13.5112 35.0952C12.5878 35.565 11.6422 36 10.6492 36.3111C10.1496 36.4571 9.64042 36.5777 9.11546 36.6127C8.85298 36.6222 8.59051 36.6253 8.33435 36.5682C8.07504 36.5269 7.83469 36.4031 7.62598 36.2539C7.85051 36.3777 8.09085 36.4698 8.347 36.4793C8.59683 36.5111 8.84982 36.4888 9.09965 36.4571C9.59931 36.3809 10.0832 36.2253 10.5575 36.0412C11.5062 35.6825 12.4138 35.2095 13.2993 34.7015C15.0608 33.6761 16.7716 32.5333 18.4097 31.3206L18.5837 31.1904L18.7576 31.3206C20.3926 32.5365 22.1034 33.6761 23.868 34.7047C24.7503 35.2127 25.6611 35.6857 26.6098 36.0444C27.081 36.2285 27.568 36.3873 28.0677 36.4603C28.3175 36.492 28.5705 36.5142 28.8203 36.4825C29.0733 36.473 29.3137 36.3809 29.5414 36.2571Z" fill="#FFF3C7"/>
<path d="M18.5839 6.00952C20.9335 6.00952 23.4065 14.1143 23.4065 14.1143C23.4065 14.1143 31.8469 13.9683 32.5711 16.2127C33.2985 18.4571 26.3855 23.3206 26.3855 23.3206C26.3855 23.3206 29.1304 31.3333 27.2298 32.7206C25.3292 34.1079 18.5839 29.0095 18.5839 29.0095C18.5839 29.0095 11.8416 34.1079 9.93787 32.7206C8.03727 31.3333 10.7822 23.3206 10.7822 23.3206C10.7822 23.3206 3.86924 18.454 4.59659 16.2127C5.32394 13.9683 13.7644 14.1143 13.7644 14.1143C13.7644 14.1143 16.2342 6.00952 18.5839 6.00952Z" fill="#CF6100"/>
<path d="M18.5838 5.42859C20.9335 5.42859 23.4065 13.5334 23.4065 13.5334C23.4065 13.5334 31.8469 13.3873 32.5743 15.6318C33.3016 17.8762 26.3886 22.7397 26.3886 22.7397C26.3886 22.7397 29.1336 30.7524 27.233 32.1397C25.3324 33.527 18.587 28.4286 18.587 28.4286C18.587 28.4286 11.8448 33.527 9.94101 32.1397C8.04041 30.7524 10.7854 22.7397 10.7854 22.7397C10.7854 22.7397 3.86921 17.8762 4.59657 15.6318C5.32392 13.3873 13.7643 13.5334 13.7643 13.5334C13.7643 13.5334 16.2342 5.42859 18.5838 5.42859Z" fill="url(#paint1_linear_194_389)"/>
<path d="M18.5838 5.42859C20.9335 5.42859 23.4065 13.5334 23.4065 13.5334C23.4065 13.5334 31.8469 13.3873 32.5743 15.6318C33.3016 17.8762 26.3886 22.7397 26.3886 22.7397C26.3886 22.7397 29.1336 30.7524 27.233 32.1397C25.3324 33.527 18.587 28.4286 18.587 28.4286C18.587 28.4286 11.8448 33.527 9.94101 32.1397C8.04041 30.7524 10.7854 22.7397 10.7854 22.7397C10.7854 22.7397 3.86921 17.8762 4.59657 15.6318C5.32392 13.3873 13.7643 13.5334 13.7643 13.5334C13.7643 13.5334 16.2342 5.42859 18.5838 5.42859Z" fill="url(#paint2_linear_194_389)"/>
<path d="M27.2297 32.1397C27.0621 32.2508 26.8724 32.346 26.67 32.3714C26.4676 32.4127 26.262 32.4095 26.0565 32.3968C25.6485 32.3651 25.2469 32.2667 24.8579 32.146C24.08 31.8952 23.34 31.5429 22.6158 31.1683C21.8916 30.7937 21.1959 30.4222 20.5096 29.9841C19.8234 29.5429 19.1529 29.2381 18.4952 28.6571H18.6691C18.0113 29.2381 17.3377 29.5429 16.6547 29.9841C15.9684 30.4222 15.2759 30.8222 14.5485 31.1968C13.8275 31.5714 13.0843 31.9079 12.3064 32.1619C11.9174 32.2825 11.5158 32.3746 11.1078 32.4064C10.9023 32.4191 10.6967 32.4159 10.4943 32.3778C10.2888 32.3524 10.1022 32.2571 9.93457 32.146C10.1085 32.2476 10.2982 32.327 10.5006 32.3397C10.6999 32.3683 10.9023 32.3524 11.1015 32.3302C11.5 32.2762 11.8858 32.1556 12.2621 32.0159C13.0179 31.7397 13.7389 31.3714 14.4441 30.9746C15.8482 30.1778 17.2049 29.2825 18.4952 28.3175L18.5806 28.254L18.6659 28.3175C19.9594 29.2857 21.3129 30.1778 22.717 30.9746C23.419 31.3714 24.1432 31.7397 24.899 32.0159C25.2753 32.1556 25.6612 32.2762 26.0596 32.3302C26.2588 32.3524 26.4612 32.3683 26.6605 32.3397C26.866 32.3206 27.0526 32.2413 27.2297 32.1397Z" fill="#FFFC81"/>
<g style="mix-blend-mode:screen" opacity="0.65">
<path d="M32.5713 15.6318C31.844 13.3873 23.4035 13.5334 23.4035 13.5334C23.4035 13.5334 20.9337 5.42859 18.5841 5.42859C16.2344 5.42859 13.7614 13.5334 13.7614 13.5334C13.7614 13.5334 5.32099 13.3873 4.59364 15.6318C4.35329 16.3714 4.94782 17.3968 5.84594 18.4381C9.47005 20.6889 13.7424 21.9905 18.3153 21.9905C23.3688 21.9905 28.0523 20.4 31.9009 17.6984C32.4543 16.9238 32.7547 16.1937 32.5713 15.6318Z" fill="url(#paint3_linear_194_389)"/>
</g>
</g>
<defs>
<linearGradient id="paint0_linear_194_389" x1="18.5847" y1="37.2063" x2="18.5847" y2="2.33558" gradientUnits="userSpaceOnUse">
<stop stop-color="#FF9302"/>
<stop offset="1" stop-color="#FCD60A"/>
</linearGradient>
<linearGradient id="paint1_linear_194_389" x1="4.54284" y1="18.9039" x2="32.6257" y2="18.9039" gradientUnits="userSpaceOnUse">
<stop stop-color="#FDE329"/>
<stop offset="1" stop-color="#FFED78"/>
</linearGradient>
<linearGradient id="paint2_linear_194_389" x1="4.54284" y1="18.9039" x2="32.6257" y2="18.9039" gradientUnits="userSpaceOnUse">
<stop stop-color="#FDE329"/>
<stop offset="1" stop-color="#FFED78"/>
</linearGradient>
<linearGradient id="paint3_linear_194_389" x1="4.54323" y1="13.709" x2="32.6259" y2="13.709" gradientUnits="userSpaceOnUse">
<stop stop-color="white"/>
<stop offset="1"/>
</linearGradient>
<clipPath id="clip0_194_389">
<rect width="37" height="40" fill="white" transform="translate(0.666016)"/>
</clipPath>
</defs>
</svg>
